<svg fill="#fff" id="Layer_1" data-name="Layer 1" xmlns="http://www.w3.org/2000/svg" viewBox="0 0 2500 2260"><defs><style>.cls-1{fill-rule:evenodd;}</style></defs><path class="cls-1" d="M2369.74,110.35,83,1002.45c-56.5,22-56,102.8.6,124.2L640.84,1337l215.6,701.5c13.8,44.9,68.2,61.5,104.2,31.7l310.6-256a91.77,91.77,0,0,1,112.9-3.2l560.2,411.3c38.6,28.3,93.2,6.9,102.9-40.2l410.4-1996.2C2468.24,134.35,2418.24,91.45,2369.74,110.35Zm-541,470.9L930,1426.05a189,189,0,0,0-57.7,112.7l-30.6,229.4c-4.1,30.6-46.6,33.6-55,4L669,1353.75c-13.5-47.7,6.2-98.7,47.9-124.7l1089-678.2C1825.54,538.75,1845.64,565.45,1828.74,581.25Z"/></svg>